<?xml version="1.0" standalone="no"?><!DOCTYPE svg PUBLIC "-//W3C//DTD SVG 1.1//EN" "http://www.w3.org/Graphics/SVG/1.1/DTD/svg11.dtd"><svg t="1565109544500" class="icon" viewBox="0 0 1024 1024" version="1.1" xmlns="http://www.w3.org/2000/svg" p-id="2002" xmlns:xlink="http://www.w3.org/1999/xlink" width="200" height="200"><defs><style type="text/css">@font-face { font-family: Georgia; src: local("Source Han Serif SC"); }
@font-face { font-family: Times; src: local("Source Han Serif SC"); }
@font-face { font-family: "Time New Roman"; src: local("Source Han Serif SC"); }
@font-face { font-family: Arial; src: local("Source Han Sans SC"); }
@font-face { font-family: Helvetica; src: local("Source Han Sans SC"); }
@font-face { font-family: "Helvetica Neue"; src: local("Source Han Sans SC"); }
@font-face { font-family: "Segoe UI"; src: local("Source Han Sans SC"); }
@font-face { font-family: Tahoma; src: local("Source Han Sans SC"); }
@font-face { font-family: Trebuchet; src: local("Source Han Sans SC"); }
@font-face { font-family: "Trebuchet MS"; src: local("Source Han Sans SC"); }
@font-face { font-family: Verdana; src: local("Source Han Sans SC"); }
@font-face { font-family: Consolas; src: local("Source Code Pro"); }
@font-face { font-family: Courier; src: local("Source Code Pro"); }
@font-face { font-family: "Courier New"; src: local("Source Code Pro"); }
@font-face { font-family: SimSun; src: local("Source Han Sans SC"); }
@font-face { font-family: SimSun-ExtB; src: local("Source Han Sans SC"); }
@font-face { font-family: 宋体; src: local("Source Han Sans SC"); }
@font-face { font-family: NSimSun; src: local("Source Han Sans SC"); }
@font-face { font-family: 新宋体; src: local("Source Han Sans SC"); }
@font-face { font-family: SimHei; src: local("Source Han Sans SC"); }
@font-face { font-family: 黑体; src: local("Source Han Sans SC"); }
@font-face { font-family: "Microsoft YaHei"; src: local("Source Han Sans SC"); }
@font-face { font-family: 微软雅黑; src: local("Source Han Sans SC"); }
@font-face { font-family: "STHeiti SC"; src: local("Source Han Sans SC"); }
@font-face { font-family: "PingFang SC"; src: local("Source Han Sans SC"); }
@font-face { font-family: 苹方-简; src: local("Source Han Sans SC"); }
@font-face { font-family: MingLiU; src: local("Source Han Sans TC"); }
@font-face { font-family: MingLiU-ExtB; src: local("Source Han Sans TC"); }
@font-face { font-family: PMingLiU; src: local("Source Han Sans TC"); }
@font-face { font-family: PMingLiU-ExtB; src: local("Source Han Sans TC"); }
@font-face { font-family: "Microsoft JhengHei"; src: local("Source Han Sans TC"); }
@font-face { font-family: 微軟正黑體; src: local("Source Han Sans TC"); }
@font-face { font-family: "STHeiti TC"; src: local("Source Han Sans TC"); }
@font-face { font-family: "PingFang TC"; src: local("Source Han Sans TC"); }
@font-face { font-family: 蘋方-繁; src: local("Source Han Sans TC"); }
@font-face { font-family: MingLiU_HKSCS; src: local("Source Han Sans HC"); }
@font-face { font-family: MingLiU_HKSCS-ExtB; src: local("Source Han Sans HC"); }
@font-face { font-family: "PingFang HK"; src: local("Source Han Sans HC"); }
@font-face { font-family: 蘋方-港; src: local("Source Han Sans HC"); }
@font-face { font-family: "MS Gothic"; src: local("Source Han Sans"); }
@font-face { font-family: "MS PGothic"; src: local("Source Han Sans"); }
@font-face { font-family: "MS UI Gothic"; src: local("Source Han Sans"); }
@font-face { font-family: "Yu Gothic"; src: local("Source Han Sans"); }
@font-face { font-family: "Yu Gothic UI"; src: local("Source Han Sans"); }
@font-face { font-family: "Malgun Gothic"; src: local("Source Han Sans K"); }
</style></defs><path d="M812.8 718.08H369.92c-17.92 0-32-14.08-32-32s14.08-32 32-32H780.8v-31.36c0-14.08-11.52-25.6-25.6-25.6H586.88c-17.92 0-32-14.08-32-32V195.84c0-12.16-10.24-22.4-22.4-22.4s-22.4 10.24-22.4 22.4v369.28c0 17.92-14.08 32-32 32h-160c-14.08 0-25.6 11.52-25.6 25.6v63.36c0 17.92-14.08 32-32 32s-32-14.08-32-32v-63.36c0-49.28 40.32-89.6 89.6-89.6h128V195.84c0-48 39.04-86.4 86.4-86.4 48 0 86.4 39.04 86.4 86.4v337.28h135.68c49.28 0 89.6 40.32 89.6 89.6v63.36c0.64 17.92-14.08 32-31.36 32zM627.2 897.92c-17.92 0-32-14.08-32-32s14.08-32 32-32c54.4 0 103.04-27.52 131.2-73.6 8.96-15.36 28.8-19.84 44.16-10.88 15.36 8.96 19.84 28.8 10.88 44.16-40.32 65.28-109.44 104.32-186.24 104.32z" fill="#515151" p-id="2003"></path><path d="M631.04 898.56H187.52c-24.32 0-45.44-16-52.48-39.04-7.04-23.68 1.92-48.64 23.04-62.08 46.72-30.72 70.4-69.76 70.4-117.76 0-17.92 14.08-32 32-32s32 14.08 32 32c0 60.8-26.24 113.92-76.16 154.24h416c17.92 0 32 14.08 32 32s-15.36 32.64-33.28 32.64z" fill="#515151" p-id="2004"></path></svg>